<mxfile host="app.diagrams.net" modified="2020-11-20T18:07:18.615Z" agent="5.0 (Windows NT 10.0; Win64; x64) AppleWebKit/537.36 (KHTML, like Gecko) Chrome/87.0.4280.66 Safari/537.36" etag="hk5SDTC8rDcNO8hcpFJo" version="13.10.0" type="github">
  <diagram id="C5RBs43oDa-KdzZeNtuy" name="Page-1">
    <mxGraphModel dx="1108" dy="482" grid="1" gridSize="10" guides="1" tooltips="1" connect="1" arrows="1" fold="1" page="1" pageScale="1" pageWidth="827" pageHeight="1169" math="0" shadow="0">
      <root>
        <mxCell id="WIyWlLk6GJQsqaUBKTNV-0" />
        <mxCell id="WIyWlLk6GJQsqaUBKTNV-1" parent="WIyWlLk6GJQsqaUBKTNV-0" />
        <mxCell id="PFuQ3xej4_SQDy6yM6zH-9" value="&lt;p style=&quot;margin: 0px ; margin-top: 4px ; text-align: center ; text-decoration: underline&quot;&gt;&lt;b&gt;Ventas&lt;/b&gt;&lt;/p&gt;&lt;p style=&quot;margin: 0px ; margin-top: 4px ; text-align: center ; text-decoration: underline&quot;&gt;&lt;b&gt;Productos/Servicios&lt;/b&gt;&lt;/p&gt;&lt;hr&gt;&lt;p style=&quot;margin: 0px ; margin-left: 8px&quot;&gt;Fecha&amp;nbsp;&lt;/p&gt;&lt;p style=&quot;margin: 0px ; margin-left: 8px&quot;&gt;Hora&lt;/p&gt;" style="verticalAlign=top;align=left;overflow=fill;fontSize=12;fontFamily=Helvetica;html=1;" parent="WIyWlLk6GJQsqaUBKTNV-1" vertex="1">
          <mxGeometry x="440" y="190" width="160" height="80" as="geometry" />
        </mxCell>
        <mxCell id="PFuQ3xej4_SQDy6yM6zH-14" value="&lt;p style=&quot;margin: 0px ; margin-top: 4px ; text-align: center ; text-decoration: underline&quot;&gt;&lt;b&gt;CatÃ¡lago de&amp;nbsp;&lt;/b&gt;&lt;/p&gt;&lt;p style=&quot;margin: 0px ; margin-top: 4px ; text-align: center ; text-decoration: underline&quot;&gt;&lt;b&gt;Productos/Servicios&lt;/b&gt;&lt;/p&gt;&lt;hr&gt;&lt;p style=&quot;margin: 0px ; margin-left: 8px&quot;&gt;Descripcion de Producto&lt;/p&gt;" style="verticalAlign=top;align=left;overflow=fill;fontSize=12;fontFamily=Helvetica;html=1;" parent="WIyWlLk6GJQsqaUBKTNV-1" vertex="1">
          <mxGeometry x="260" y="40" width="160" height="80" as="geometry" />
        </mxCell>
        <mxCell id="PFuQ3xej4_SQDy6yM6zH-15" value="&lt;p style=&quot;margin: 0px ; margin-top: 4px ; text-align: center ; text-decoration: underline&quot;&gt;&lt;b&gt;Producto&lt;/b&gt;&lt;/p&gt;&lt;hr&gt;&lt;p style=&quot;margin: 0px ; margin-left: 8px&quot;&gt;Nombre&lt;/p&gt;&lt;p style=&quot;margin: 0px ; margin-left: 8px&quot;&gt;Detalle de Prodcuto&lt;/p&gt;&lt;p style=&quot;margin: 0px ; margin-left: 8px&quot;&gt;&lt;br&gt;&lt;/p&gt;" style="verticalAlign=top;align=left;overflow=fill;fontSize=12;fontFamily=Helvetica;html=1;" parent="WIyWlLk6GJQsqaUBKTNV-1" vertex="1">
          <mxGeometry x="170" y="190" width="160" height="80" as="geometry" />
        </mxCell>
        <mxCell id="PFuQ3xej4_SQDy6yM6zH-16" value="&lt;p style=&quot;margin: 0px ; margin-top: 4px ; text-align: center ; text-decoration: underline&quot;&gt;&lt;b&gt;Cliente&lt;/b&gt;&lt;/p&gt;&lt;hr&gt;&lt;p style=&quot;margin: 0px ; margin-left: 8px&quot;&gt;DNI&lt;/p&gt;&lt;p style=&quot;margin: 0px ; margin-left: 8px&quot;&gt;Nombres&lt;/p&gt;&lt;p style=&quot;margin: 0px ; margin-left: 8px&quot;&gt;Apellidos&lt;/p&gt;" style="verticalAlign=top;align=left;overflow=fill;fontSize=12;fontFamily=Helvetica;html=1;" parent="WIyWlLk6GJQsqaUBKTNV-1" vertex="1">
          <mxGeometry x="440" y="340" width="160" height="80" as="geometry" />
        </mxCell>
        <mxCell id="PFuQ3xej4_SQDy6yM6zH-20" value="Iniciado" style="endArrow=none;html=1;edgeStyle=orthogonalEdgeStyle;exitX=0.544;exitY=-0.012;exitDx=0;exitDy=0;exitPerimeter=0;entryX=0.5;entryY=1;entryDx=0;entryDy=0;" parent="WIyWlLk6GJQsqaUBKTNV-1" source="PFuQ3xej4_SQDy6yM6zH-16" edge="1" target="PFuQ3xej4_SQDy6yM6zH-9">
          <mxGeometry x="-0.1047" y="-5" relative="1" as="geometry">
            <mxPoint x="390" y="280" as="sourcePoint" />
            <mxPoint x="527" y="310" as="targetPoint" />
            <mxPoint as="offset" />
          </mxGeometry>
        </mxCell>
        <mxCell id="PFuQ3xej4_SQDy6yM6zH-21" value="+1" style="edgeLabel;resizable=0;html=1;align=left;verticalAlign=bottom;" parent="PFuQ3xej4_SQDy6yM6zH-20" connectable="0" vertex="1">
          <mxGeometry x="-1" relative="1" as="geometry" />
        </mxCell>
        <mxCell id="PFuQ3xej4_SQDy6yM6zH-22" value="+1" style="edgeLabel;resizable=0;html=1;align=right;verticalAlign=bottom;" parent="PFuQ3xej4_SQDy6yM6zH-20" connectable="0" vertex="1">
          <mxGeometry x="1" relative="1" as="geometry">
            <mxPoint x="-7" y="16.96" as="offset" />
          </mxGeometry>
        </mxCell>
        <mxCell id="PFuQ3xej4_SQDy6yM6zH-24" value="Almacena" style="endArrow=none;html=1;edgeStyle=orthogonalEdgeStyle;entryX=1;entryY=0.5;entryDx=0;entryDy=0;exitX=0;exitY=0.75;exitDx=0;exitDy=0;" parent="WIyWlLk6GJQsqaUBKTNV-1" source="PFuQ3xej4_SQDy6yM6zH-9" target="PFuQ3xej4_SQDy6yM6zH-15" edge="1">
          <mxGeometry relative="1" as="geometry">
            <mxPoint x="320" y="270" as="sourcePoint" />
            <mxPoint x="480" y="270" as="targetPoint" />
          </mxGeometry>
        </mxCell>
        <mxCell id="PFuQ3xej4_SQDy6yM6zH-25" value="+*" style="edgeLabel;resizable=0;html=1;align=left;verticalAlign=bottom;" parent="PFuQ3xej4_SQDy6yM6zH-24" connectable="0" vertex="1">
          <mxGeometry x="-1" relative="1" as="geometry">
            <mxPoint x="-20" y="20" as="offset" />
          </mxGeometry>
        </mxCell>
        <mxCell id="PFuQ3xej4_SQDy6yM6zH-26" value="+*" style="edgeLabel;resizable=0;html=1;align=right;verticalAlign=bottom;" parent="PFuQ3xej4_SQDy6yM6zH-24" connectable="0" vertex="1">
          <mxGeometry x="1" relative="1" as="geometry">
            <mxPoint x="20" as="offset" />
          </mxGeometry>
        </mxCell>
        <mxCell id="PFuQ3xej4_SQDy6yM6zH-27" value="Almacena" style="endArrow=none;html=1;edgeStyle=orthogonalEdgeStyle;exitX=0.8;exitY=0;exitDx=0;exitDy=0;exitPerimeter=0;entryX=0.25;entryY=1;entryDx=0;entryDy=0;" parent="WIyWlLk6GJQsqaUBKTNV-1" source="PFuQ3xej4_SQDy6yM6zH-15" target="PFuQ3xej4_SQDy6yM6zH-14" edge="1">
          <mxGeometry relative="1" as="geometry">
            <mxPoint x="390" y="150" as="sourcePoint" />
            <mxPoint x="298" y="125" as="targetPoint" />
          </mxGeometry>
        </mxCell>
        <mxCell id="PFuQ3xej4_SQDy6yM6zH-28" value="+1..*" style="edgeLabel;resizable=0;html=1;align=left;verticalAlign=bottom;" parent="PFuQ3xej4_SQDy6yM6zH-27" connectable="0" vertex="1">
          <mxGeometry x="-1" relative="1" as="geometry">
            <mxPoint x="2" as="offset" />
          </mxGeometry>
        </mxCell>
        <mxCell id="PFuQ3xej4_SQDy6yM6zH-29" value="+1" style="edgeLabel;resizable=0;html=1;align=right;verticalAlign=bottom;" parent="PFuQ3xej4_SQDy6yM6zH-27" connectable="0" vertex="1">
          <mxGeometry x="1" relative="1" as="geometry">
            <mxPoint x="10" y="10" as="offset" />
          </mxGeometry>
        </mxCell>
        <mxCell id="PFuQ3xej4_SQDy6yM6zH-30" value="&lt;p style=&quot;margin: 0px ; margin-top: 4px ; text-align: center ; text-decoration: underline&quot;&gt;&lt;b&gt;Vendedor&amp;nbsp;&lt;/b&gt;&lt;/p&gt;&lt;hr&gt;&lt;p style=&quot;margin: 0px ; margin-left: 8px&quot;&gt;&lt;span&gt;Nombres&lt;/span&gt;&lt;br&gt;&lt;/p&gt;&lt;p style=&quot;margin: 0px ; margin-left: 8px&quot;&gt;Apellidos&lt;/p&gt;" style="verticalAlign=top;align=left;overflow=fill;fontSize=12;fontFamily=Helvetica;html=1;" parent="WIyWlLk6GJQsqaUBKTNV-1" vertex="1">
          <mxGeometry x="660" y="50" width="160" height="80" as="geometry" />
        </mxCell>
        <mxCell id="PFuQ3xej4_SQDy6yM6zH-31" value="&lt;p style=&quot;margin: 0px ; margin-top: 4px ; text-align: center ; text-decoration: underline&quot;&gt;&lt;b&gt;Repartidor&lt;/b&gt;&lt;/p&gt;&lt;hr&gt;&lt;p style=&quot;margin: 0px ; margin-left: 8px&quot;&gt;DNI&lt;/p&gt;&lt;p style=&quot;margin: 0px ; margin-left: 8px&quot;&gt;Nombres&lt;/p&gt;&lt;p style=&quot;margin: 0px ; margin-left: 8px&quot;&gt;Apellidos&lt;/p&gt;" style="verticalAlign=top;align=left;overflow=fill;fontSize=12;fontFamily=Helvetica;html=1;" parent="WIyWlLk6GJQsqaUBKTNV-1" vertex="1">
          <mxGeometry x="480" y="40" width="160" height="80" as="geometry" />
        </mxCell>
        <mxCell id="PFuQ3xej4_SQDy6yM6zH-32" value="Entrega" style="endArrow=none;html=1;edgeStyle=orthogonalEdgeStyle;exitX=0.5;exitY=0;exitDx=0;exitDy=0;" parent="WIyWlLk6GJQsqaUBKTNV-1" target="PFuQ3xej4_SQDy6yM6zH-31" edge="1" source="PFuQ3xej4_SQDy6yM6zH-9">
          <mxGeometry relative="1" as="geometry">
            <mxPoint x="520" y="165" as="sourcePoint" />
            <mxPoint x="559.5" y="120" as="targetPoint" />
            <Array as="points">
              <mxPoint x="520" y="143" />
              <mxPoint x="560" y="143" />
            </Array>
          </mxGeometry>
        </mxCell>
        <mxCell id="PFuQ3xej4_SQDy6yM6zH-33" value="+*" style="edgeLabel;resizable=0;html=1;align=left;verticalAlign=bottom;" parent="PFuQ3xej4_SQDy6yM6zH-32" connectable="0" vertex="1">
          <mxGeometry x="-1" relative="1" as="geometry">
            <mxPoint as="offset" />
          </mxGeometry>
        </mxCell>
        <mxCell id="PFuQ3xej4_SQDy6yM6zH-34" value="+1" style="edgeLabel;resizable=0;html=1;align=right;verticalAlign=bottom;" parent="PFuQ3xej4_SQDy6yM6zH-32" connectable="0" vertex="1">
          <mxGeometry x="1" relative="1" as="geometry">
            <mxPoint x="-7" y="16.96" as="offset" />
          </mxGeometry>
        </mxCell>
        <mxCell id="PFuQ3xej4_SQDy6yM6zH-35" value="Realiza" style="endArrow=none;html=1;edgeStyle=orthogonalEdgeStyle;exitX=1;exitY=0.5;exitDx=0;exitDy=0;" parent="WIyWlLk6GJQsqaUBKTNV-1" source="PFuQ3xej4_SQDy6yM6zH-9" edge="1">
          <mxGeometry relative="1" as="geometry">
            <mxPoint x="690" y="175" as="sourcePoint" />
            <mxPoint x="730" y="130" as="targetPoint" />
            <Array as="points">
              <mxPoint x="690" y="210" />
              <mxPoint x="690" y="153" />
              <mxPoint x="730" y="153" />
            </Array>
          </mxGeometry>
        </mxCell>
        <mxCell id="PFuQ3xej4_SQDy6yM6zH-36" value="+1" style="edgeLabel;resizable=0;html=1;align=left;verticalAlign=bottom;" parent="PFuQ3xej4_SQDy6yM6zH-35" connectable="0" vertex="1">
          <mxGeometry x="-1" relative="1" as="geometry" />
        </mxCell>
        <mxCell id="PFuQ3xej4_SQDy6yM6zH-37" value="+1" style="edgeLabel;resizable=0;html=1;align=right;verticalAlign=bottom;" parent="PFuQ3xej4_SQDy6yM6zH-35" connectable="0" vertex="1">
          <mxGeometry x="1" relative="1" as="geometry">
            <mxPoint x="-7" y="16.96" as="offset" />
          </mxGeometry>
        </mxCell>
      </root>
    </mxGraphModel>
  </diagram>
</mxfile>
